<mxfile host="app.diagrams.net" modified="2022-09-30T03:05:07.995Z" agent="5.0 (Windows NT 10.0; Win64; x64) AppleWebKit/537.36 (KHTML, like Gecko) Chrome/106.0.0.0 Safari/537.36" etag="1jhZQ81t1fAAl03ctWcD" version="20.3.7" type="github">
  <diagram id="C5RBs43oDa-KdzZeNtuy" name="Page-1">
    <mxGraphModel dx="1038" dy="547" grid="0" gridSize="10" guides="1" tooltips="1" connect="1" arrows="1" fold="1" page="1" pageScale="1" pageWidth="827" pageHeight="1169" math="0" shadow="0">
      <root>
        <mxCell id="WIyWlLk6GJQsqaUBKTNV-0" />
        <mxCell id="WIyWlLk6GJQsqaUBKTNV-1" parent="WIyWlLk6GJQsqaUBKTNV-0" />
        <mxCell id="9OZRC_NavAZGSDA5mFGG-38" value="인도(side_walk) 동적 객체 탐지 알고리즘" style="swimlane;strokeWidth=1;fontSize=12;startSize=23;fontFamily=프리텐다드;fontSource=%40font-face%20%7B%20%20%20%20%20font-family%3A%20&#39;Pretendard-Regular&#39;%3B%20%20%20%20%20src%3A%20url(&#39;https%3A%2F%2Fcdn.jsdelivr.net%2Fgh%2FProject-Noonnu%2Fnoonfonts_2107%401.1%2FPretendard-Regular.woff&#39;)%20format(&#39;woff&#39;)%3B%20%20%20%20%20font-weight%3A%20400%3B%20%20%20%20%20font-style%3A%20normal%3B%20%7D;" parent="WIyWlLk6GJQsqaUBKTNV-1" vertex="1">
          <mxGeometry x="151" y="6" width="608" height="959" as="geometry" />
        </mxCell>
      </root>
    </mxGraphModel>
  </diagram>
</mxfile>
